<svg width="25" height="25" viewBox="0 0 25 25" fill="none" xmlns="http://www.w3.org/2000/svg">
<path d="M19.6779 0C18.6868 0 17.7179 0.293897 16.8938 0.844525C16.0698 1.39515 15.4275 2.17778 15.0482 3.09344C14.6689 4.0091 14.5697 5.01667 14.763 5.98873C14.9564 6.96079 15.4337 7.85369 16.1345 8.5545C16.8353 9.25532 17.7282 9.73258 18.7002 9.92594C19.6723 10.1193 20.6799 10.0201 21.5955 9.64077C22.5112 9.2615 23.2938 8.61921 23.8444 7.79514C24.3951 6.97106 24.689 6.00222 24.689 5.01111C24.6876 3.68252 24.1591 2.40874 23.2197 1.46928C22.2802 0.529824 21.0065 0.00141491 19.6779 0Z" fill="url(#paint0_linear_101_217)"/>
<path d="M20.763 3.35706L19.1555 5.28516L18.5927 4.61045C18.5401 4.54731 18.4755 4.49515 18.4028 4.45695C18.33 4.41875 18.2504 4.39526 18.1686 4.38782C18.0867 4.38038 18.0042 4.38913 17.9257 4.41358C17.8472 4.43803 17.7744 4.47769 17.7112 4.53031C17.6481 4.58293 17.5959 4.64746 17.5577 4.72024C17.5195 4.79301 17.496 4.8726 17.4886 4.95445C17.4812 5.0363 17.4899 5.11882 17.5144 5.19729C17.5388 5.27576 17.5785 5.34864 17.6311 5.41179L18.6747 6.66456C18.7333 6.73514 18.8068 6.79195 18.8898 6.83096C18.9729 6.86997 19.0635 6.89022 19.1553 6.89028C19.2471 6.89034 19.3378 6.8702 19.4209 6.8313C19.504 6.7924 19.5775 6.73568 19.6363 6.66518L21.7246 4.15962C21.7777 4.09653 21.8178 4.02358 21.8426 3.94495C21.8675 3.86633 21.8765 3.78358 21.8693 3.70145C21.862 3.61931 21.8386 3.53942 21.8004 3.46635C21.7622 3.39328 21.71 3.32847 21.6467 3.27564C21.5834 3.22281 21.5103 3.183 21.4316 3.15849C21.3528 3.13399 21.2701 3.12526 21.188 3.13283C21.1059 3.14039 21.0261 3.1641 20.9531 3.20258C20.8802 3.24106 20.8156 3.29356 20.763 3.35706Z" fill="url(#paint1_linear_101_217)"/>
<path d="M19.6779 14C18.6868 14 17.7179 14.2939 16.8938 14.8445C16.0698 15.3952 15.4275 16.1778 15.0482 17.0934C14.6689 18.0091 14.5697 19.0167 14.763 19.9887C14.9564 20.9608 15.4337 21.8537 16.1345 22.5545C16.8353 23.2553 17.7282 23.7326 18.7002 23.9259C19.6723 24.1193 20.6799 24.0201 21.5955 23.6408C22.5112 23.2615 23.2938 22.6192 23.8444 21.7951C24.3951 20.9711 24.689 20.0022 24.689 19.0111C24.6876 17.6825 24.1591 16.4087 23.2197 15.4693C22.2802 14.5298 21.0065 14.0014 19.6779 14Z" fill="url(#paint2_linear_101_217)"/>
<path d="M20.763 17.3571L19.1555 19.2852L18.5927 18.6104C18.5401 18.5473 18.4755 18.4951 18.4028 18.4569C18.33 18.4188 18.2504 18.3953 18.1686 18.3878C18.0867 18.3804 18.0042 18.3891 17.9257 18.4136C17.8472 18.438 17.7744 18.4777 17.7112 18.5303C17.6481 18.5829 17.5959 18.6475 17.5577 18.7202C17.5195 18.793 17.496 18.8726 17.4886 18.9545C17.4812 19.0363 17.4899 19.1188 17.5144 19.1973C17.5388 19.2758 17.5785 19.3486 17.6311 19.4118L18.6747 20.6646C18.7333 20.7351 18.8068 20.792 18.8898 20.831C18.9729 20.87 19.0635 20.8902 19.1553 20.8903C19.2471 20.8903 19.3378 20.8702 19.4209 20.8313C19.504 20.7924 19.5775 20.7357 19.6363 20.6652L21.7246 18.1596C21.7777 18.0965 21.8178 18.0236 21.8426 17.945C21.8675 17.8663 21.8765 17.7836 21.8693 17.7014C21.862 17.6193 21.8386 17.5394 21.8004 17.4664C21.7622 17.3933 21.71 17.3285 21.6467 17.2756C21.5834 17.2228 21.5103 17.183 21.4316 17.1585C21.3528 17.134 21.2701 17.1253 21.188 17.1328C21.1059 17.1404 21.0261 17.1641 20.9531 17.2026C20.8802 17.2411 20.8156 17.2936 20.763 17.3571Z" fill="#6B8BDF"/>
<path d="M19.6779 0C18.6868 0 17.7179 0.293897 16.8938 0.844525C16.0698 1.39515 15.4275 2.17778 15.0482 3.09344C14.6689 4.0091 14.5697 5.01667 14.763 5.98873C14.9564 6.96079 15.4337 7.85369 16.1345 8.5545C16.8353 9.25532 17.7282 9.73258 18.7002 9.92594C19.6723 10.1193 20.6799 10.0201 21.5955 9.64077C22.5112 9.2615 23.2938 8.61921 23.8444 7.79514C24.3951 6.97106 24.689 6.00222 24.689 5.01111C24.6876 3.68252 24.1591 2.40874 23.2197 1.46928C22.2802 0.529824 21.0065 0.00141491 19.6779 0Z" fill="url(#paint3_linear_101_217)"/>
<path d="M20.763 3.35706L19.1555 5.28516L18.5927 4.61045C18.5401 4.54731 18.4755 4.49515 18.4028 4.45695C18.33 4.41875 18.2504 4.39526 18.1686 4.38782C18.0867 4.38038 18.0042 4.38913 17.9257 4.41358C17.8472 4.43803 17.7744 4.47769 17.7112 4.53031C17.6481 4.58293 17.5959 4.64746 17.5577 4.72024C17.5195 4.79301 17.496 4.8726 17.4886 4.95445C17.4812 5.0363 17.4899 5.11882 17.5144 5.19729C17.5388 5.27576 17.5785 5.34864 17.6311 5.41179L18.6747 6.66456C18.7333 6.73514 18.8068 6.79195 18.8898 6.83096C18.9729 6.86997 19.0635 6.89022 19.1553 6.89028C19.2471 6.89034 19.3378 6.8702 19.4209 6.8313C19.504 6.7924 19.5775 6.73568 19.6363 6.66518L21.7246 4.15962C21.7777 4.09653 21.8178 4.02358 21.8426 3.94495C21.8675 3.86633 21.8765 3.78358 21.8693 3.70145C21.862 3.61931 21.8386 3.53942 21.8004 3.46635C21.7622 3.39328 21.71 3.32847 21.6467 3.27564C21.5834 3.22281 21.5103 3.183 21.4316 3.15849C21.3528 3.13399 21.2701 3.12526 21.188 3.13283C21.1059 3.14039 21.0261 3.1641 20.9531 3.20258C20.8802 3.24106 20.8156 3.29356 20.763 3.35706Z" fill="#6980E2"/>
<path d="M5.01111 0C4.02001 0 3.05116 0.293897 2.22709 0.844525C1.40302 1.39515 0.760729 2.17778 0.38145 3.09344C0.00217123 4.0091 -0.0970655 5.01667 0.0962893 5.98873C0.289644 6.96079 0.766906 7.85369 1.46772 8.5545C2.16854 9.25532 3.06143 9.73258 4.03349 9.92594C5.00555 10.1193 6.01312 10.0201 6.92878 9.64077C7.84444 9.2615 8.62707 8.61921 9.1777 7.79514C9.72833 6.97106 10.0222 6.00222 10.0222 5.01111C10.0208 3.68252 9.4924 2.40874 8.55294 1.46928C7.61348 0.529824 6.33971 0.00141491 5.01111 0Z" fill="url(#paint4_linear_101_217)"/>
<path d="M6.09628 3.35706L4.48872 5.28516L3.92595 4.61045C3.87333 4.54731 3.80879 4.49515 3.73602 4.45695C3.66325 4.41875 3.58366 4.39526 3.50181 4.38782C3.41995 4.38038 3.33744 4.38913 3.25897 4.41358C3.1805 4.43803 3.10761 4.47769 3.04447 4.53031C2.98133 4.58293 2.92917 4.64746 2.89098 4.72024C2.85278 4.79301 2.82929 4.8726 2.82185 4.95445C2.8144 5.0363 2.82316 5.11882 2.84761 5.19729C2.87206 5.27576 2.91172 5.34864 2.96434 5.41179L4.00791 6.66456C4.06657 6.73514 4.14003 6.79195 4.2231 6.83096C4.30617 6.86997 4.3968 6.89022 4.48857 6.89028C4.58034 6.89034 4.671 6.8702 4.75412 6.8313C4.83724 6.7924 4.91078 6.73568 4.96952 6.66518L7.05789 4.15962C7.11097 4.09653 7.15107 4.02358 7.17589 3.94495C7.2007 3.86633 7.20975 3.78358 7.20251 3.70145C7.19527 3.61931 7.17188 3.53942 7.13369 3.46635C7.09549 3.39328 7.04325 3.32847 6.97995 3.27564C6.91665 3.22281 6.84354 3.183 6.76482 3.15849C6.68609 3.13399 6.60331 3.12526 6.52121 3.13283C6.4391 3.14039 6.3593 3.1641 6.28638 3.20258C6.21347 3.24106 6.14886 3.29356 6.09628 3.35706Z" fill="url(#paint5_linear_101_217)"/>
<path d="M5.01111 14C4.02001 14 3.05116 14.2939 2.22709 14.8445C1.40302 15.3952 0.760729 16.1778 0.38145 17.0934C0.00217123 18.0091 -0.0970655 19.0167 0.0962893 19.9887C0.289644 20.9608 0.766906 21.8537 1.46772 22.5545C2.16854 23.2553 3.06143 23.7326 4.03349 23.9259C5.00555 24.1193 6.01312 24.0201 6.92878 23.6408C7.84444 23.2615 8.62707 22.6192 9.1777 21.7951C9.72833 20.9711 10.0222 20.0022 10.0222 19.0111C10.0208 17.6825 9.4924 16.4087 8.55294 15.4693C7.61348 14.5298 6.33971 14.0014 5.01111 14Z" fill="url(#paint6_linear_101_217)"/>
<path d="M6.09628 17.3571L4.48872 19.2852L3.92595 18.6104C3.87333 18.5473 3.80879 18.4951 3.73602 18.4569C3.66325 18.4188 3.58366 18.3953 3.50181 18.3878C3.41995 18.3804 3.33744 18.3891 3.25897 18.4136C3.1805 18.438 3.10761 18.4777 3.04447 18.5303C2.98133 18.5829 2.92917 18.6475 2.89098 18.7202C2.85278 18.793 2.82929 18.8726 2.82185 18.9545C2.8144 19.0363 2.82316 19.1188 2.84761 19.1973C2.87206 19.2758 2.91172 19.3486 2.96434 19.4118L4.00791 20.6646C4.06657 20.7351 4.14003 20.792 4.2231 20.831C4.30617 20.87 4.3968 20.8902 4.48857 20.8903C4.58034 20.8903 4.671 20.8702 4.75412 20.8313C4.83724 20.7924 4.91078 20.7357 4.96952 20.6652L7.05789 18.1596C7.11097 18.0965 7.15107 18.0236 7.17589 17.945C7.2007 17.8663 7.20975 17.7836 7.20251 17.7014C7.19527 17.6193 7.17188 17.5394 7.13369 17.4664C7.09549 17.3933 7.04325 17.3285 6.97995 17.2756C6.91665 17.2228 6.84354 17.183 6.76482 17.1585C6.68609 17.134 6.60331 17.1253 6.52121 17.1328C6.4391 17.1404 6.3593 17.1641 6.28638 17.2026C6.21347 17.2411 6.14886 17.2936 6.09628 17.3571Z" fill="#6980E2"/>
<path d="M5.01111 0C4.02001 0 3.05116 0.293897 2.22709 0.844525C1.40302 1.39515 0.760729 2.17778 0.38145 3.09344C0.00217123 4.0091 -0.0970655 5.01667 0.0962893 5.98873C0.289644 6.96079 0.766906 7.85369 1.46772 8.5545C2.16854 9.25532 3.06143 9.73258 4.03349 9.92594C5.00555 10.1193 6.01312 10.0201 6.92878 9.64077C7.84444 9.2615 8.62707 8.61921 9.1777 7.79514C9.72833 6.97106 10.0222 6.00222 10.0222 5.01111C10.0208 3.68252 9.4924 2.40874 8.55294 1.46928C7.61348 0.529824 6.33971 0.00141491 5.01111 0Z" fill="url(#paint7_linear_101_217)"/>
<path d="M6.09628 3.35706L4.48872 5.28516L3.92595 4.61045C3.87333 4.54731 3.80879 4.49515 3.73602 4.45695C3.66325 4.41875 3.58366 4.39526 3.50181 4.38782C3.41995 4.38038 3.33744 4.38913 3.25897 4.41358C3.1805 4.43803 3.10761 4.47769 3.04447 4.53031C2.98133 4.58293 2.92917 4.64746 2.89098 4.72024C2.85278 4.79301 2.82929 4.8726 2.82185 4.95445C2.8144 5.0363 2.82316 5.11882 2.84761 5.19729C2.87206 5.27576 2.91172 5.34864 2.96434 5.41179L4.00791 6.66456C4.06657 6.73514 4.14003 6.79195 4.2231 6.83096C4.30617 6.86997 4.3968 6.89022 4.48857 6.89028C4.58034 6.89034 4.671 6.8702 4.75412 6.8313C4.83724 6.7924 4.91078 6.73568 4.96952 6.66518L7.05789 4.15962C7.11097 4.09653 7.15107 4.02358 7.17589 3.94495C7.2007 3.86633 7.20975 3.78358 7.20251 3.70145C7.19527 3.61931 7.17188 3.53942 7.13369 3.46635C7.09549 3.39328 7.04325 3.32847 6.97995 3.27564C6.91665 3.22281 6.84354 3.183 6.76482 3.15849C6.68609 3.13399 6.60331 3.12526 6.52121 3.13283C6.4391 3.14039 6.3593 3.1641 6.28638 3.20258C6.21347 3.24106 6.14886 3.29356 6.09628 3.35706Z" fill="#666EE6"/>
<defs>
<linearGradient id="paint0_linear_101_217" x1="15" y1="1" x2="23" y2="9.5" gradientUnits="userSpaceOnUse">
<stop stop-color="#77C8D0"/>
<stop offset="1" stop-color="#77C8D0"/>
</linearGradient>
<linearGradient id="paint1_linear_101_217" x1="17.6319" y1="3.50536" x2="20.5709" y2="7.14761" gradientUnits="userSpaceOnUse">
<stop stop-color="white"/>
<stop offset="1" stop-color="white"/>
</linearGradient>
<linearGradient id="paint2_linear_101_217" x1="15" y1="15" x2="23" y2="23.5" gradientUnits="userSpaceOnUse">
<stop stop-color="white"/>
<stop offset="1" stop-color="white"/>
</linearGradient>
<linearGradient id="paint3_linear_101_217" x1="15" y1="1" x2="23" y2="9.5" gradientUnits="userSpaceOnUse">
<stop stop-color="white"/>
<stop offset="1" stop-color="white"/>
</linearGradient>
<linearGradient id="paint4_linear_101_217" x1="0.333252" y1="1" x2="8.33325" y2="9.5" gradientUnits="userSpaceOnUse">
<stop stop-color="#77C8D0"/>
<stop offset="1" stop-color="#77C8D0"/>
</linearGradient>
<linearGradient id="paint5_linear_101_217" x1="2.9651" y1="3.50536" x2="5.90414" y2="7.14761" gradientUnits="userSpaceOnUse">
<stop stop-color="white"/>
<stop offset="1" stop-color="white"/>
</linearGradient>
<linearGradient id="paint6_linear_101_217" x1="0.333252" y1="15" x2="8.33325" y2="23.5" gradientUnits="userSpaceOnUse">
<stop stop-color="white"/>
<stop offset="1" stop-color="white"/>
</linearGradient>
<linearGradient id="paint7_linear_101_217" x1="0.333252" y1="1" x2="8.33325" y2="9.5" gradientUnits="userSpaceOnUse">
<stop stop-color="white"/>
<stop offset="1" stop-color="white"/>
</linearGradient>
</defs>
</svg>
