<svg width="24" height="21" viewBox="0 0 24 21" fill="none" xmlns="http://www.w3.org/2000/svg">
<path d="M6.82635 7.50009C5.47623 7.50009 4.15642 7.88701 3.03383 8.61193C1.91125 9.33685 1.0363 10.3672 0.519628 11.5727C0.00295771 12.7782 -0.132227 14.1047 0.131169 15.3844C0.394565 16.6642 1.04471 17.8397 1.99939 18.7623C2.95408 19.685 4.17041 20.3133 5.4946 20.5679C6.81878 20.8224 8.19133 20.6918 9.43868 20.1925C10.686 19.6931 11.7522 18.8475 12.5022 17.7626C13.2523 16.6777 13.6527 15.4022 13.6527 14.0974C13.6527 13.231 13.4761 12.3731 13.1331 11.5727C12.79 10.7723 12.2872 10.045 11.6533 9.43239C11.0194 8.81977 10.2669 8.33382 9.43868 8.00228C8.61047 7.67074 7.7228 7.50009 6.82635 7.50009Z" fill="white"/>
<path d="M6.82635 7.50009C5.47623 7.50009 4.15642 7.88701 3.03383 8.61193C1.91125 9.33685 1.0363 10.3672 0.519628 11.5727C0.00295771 12.7782 -0.132227 14.1047 0.131169 15.3844C0.394565 16.6642 1.04471 17.8397 1.99939 18.7623C2.95408 19.685 4.17041 20.3133 5.4946 20.5679C6.81878 20.8224 8.19133 20.6918 9.43868 20.1925C10.686 19.6931 11.7522 18.8475 12.5022 17.7626C13.2523 16.6777 13.6527 15.4022 13.6527 14.0974C13.6527 13.231 13.4761 12.3731 13.1331 11.5727C12.79 10.7723 12.2872 10.045 11.6533 9.43239C11.0194 8.81977 10.2669 8.33382 9.43868 8.00228C8.61047 7.67074 7.7228 7.50009 6.82635 7.50009Z" fill="white"/>
<path d="M6.82642 16.118C7.41259 16.118 7.98111 15.9241 8.43744 15.5685C8.57684 15.4565 8.75657 15.4027 8.93708 15.4187C9.02645 15.4267 9.11333 15.4516 9.19275 15.492C9.27217 15.5324 9.34258 15.5876 9.39995 15.6543C9.51582 15.789 9.57157 15.9627 9.55493 16.1372C9.53828 16.3116 9.45062 16.4725 9.31121 16.5845C8.61401 17.147 7.73462 17.4551 6.82642 17.4551C5.91822 17.4551 5.03883 17.147 4.34163 16.5845C4.20223 16.4725 4.11456 16.3116 4.09792 16.1372C4.08127 15.9627 4.13702 15.789 4.25289 15.6543C4.36876 15.5196 4.53526 15.4348 4.71577 15.4187C4.89627 15.4027 5.076 15.4565 5.2154 15.5685C5.67173 15.9241 6.24025 16.118 6.82642 16.118Z" fill="#6B8ADF"/>
<path d="M5.40313 13.326C5.22279 13.326 5.04977 13.257 4.92187 13.1341C4.85841 13.0723 4.78291 13.0232 4.69973 12.9897C4.61654 12.9562 4.52732 12.939 4.4372 12.939C4.34708 12.939 4.25786 12.9562 4.17467 12.9897C4.09149 13.0232 4.01599 13.0723 3.95253 13.1341C3.89133 13.2032 3.81603 13.2593 3.73134 13.2989C3.64664 13.3385 3.5544 13.3607 3.46039 13.3642C3.36637 13.3677 3.27263 13.3524 3.18503 13.3193C3.09743 13.2861 3.01787 13.2358 2.95134 13.1715C2.88482 13.1072 2.83276 13.0303 2.79844 12.9457C2.76412 12.861 2.74828 12.7704 2.75191 12.6795C2.75554 12.5887 2.77857 12.4995 2.81954 12.4177C2.86052 12.3358 2.91856 12.2631 2.99001 12.2039C3.38067 11.8457 3.89867 11.646 4.4372 11.646C4.97573 11.646 5.49373 11.8457 5.88439 12.2039C6.01153 12.3275 6.08289 12.4947 6.08289 12.669C6.08289 12.8433 6.01153 13.0105 5.88439 13.1341C5.75649 13.257 5.58347 13.326 5.40313 13.326Z" fill="#6B8ADF"/>
<path d="M9.21564 11.646C9.75417 11.646 10.2722 11.8457 10.6628 12.2039C10.79 12.3275 10.8613 12.4947 10.8613 12.669C10.8613 12.8433 10.79 13.0105 10.6628 13.1341C10.5349 13.257 10.3619 13.326 10.1816 13.326C10.0012 13.326 9.82821 13.257 9.70031 13.1341C9.63685 13.0723 9.56135 13.0232 9.47817 12.9897C9.39498 12.9562 9.30576 12.939 9.21564 12.939C9.12553 12.939 9.0363 12.9562 8.95312 12.9897C8.86993 13.0232 8.79443 13.0723 8.73097 13.1341C8.60038 13.2422 8.4324 13.2987 8.2606 13.2923C8.0888 13.2859 7.92583 13.217 7.80425 13.0995C7.68268 12.982 7.61146 12.8245 7.60482 12.6585C7.59819 12.4925 7.65662 12.3301 7.76846 12.2039C8.15911 11.8457 8.67711 11.646 9.21564 11.646Z" fill="#6B8ADF"/>
<path d="M17.1736 0C15.8235 0 14.5037 0.386923 13.3811 1.11184C12.2585 1.83676 11.3836 2.86711 10.8669 4.07261C10.3502 5.2781 10.2151 6.60459 10.4785 7.88434C10.7419 9.16408 11.392 10.3396 12.3467 11.2623C13.3014 12.1849 14.5177 12.8132 15.8419 13.0678C17.1661 13.3223 18.5386 13.1917 19.786 12.6924C21.0333 12.193 22.0994 11.3474 22.8495 10.2625C23.5996 9.17761 24 7.90209 24 6.59727C24 5.73091 23.8234 4.87302 23.4804 4.07261C23.1373 3.27219 22.6345 2.54491 22.0006 1.9323C21.3667 1.31968 20.6142 0.833732 19.786 0.502188C18.9578 0.170644 18.0701 0 17.1736 0Z" fill="white"/>
<path d="M17.1737 9.25309C17.7599 9.25309 18.3284 9.44699 18.7847 9.80257C18.9241 9.91455 19.1039 9.96842 19.2844 9.95234C19.3737 9.94437 19.4606 9.91947 19.54 9.87906C19.6195 9.83865 19.6899 9.78351 19.7472 9.7168C19.8631 9.58207 19.9189 9.40838 19.9022 9.23393C19.8856 9.05948 19.7979 8.89857 19.6585 8.78658C18.9613 8.2241 18.0819 7.91599 17.1737 7.91599C16.2655 7.91599 15.3861 8.2241 14.6889 8.78658C14.5495 8.89857 14.4618 9.05948 14.4452 9.23393C14.4286 9.40838 14.4843 9.58207 14.6002 9.7168C14.716 9.85153 14.8826 9.93625 15.0631 9.95234C15.2436 9.96842 15.4233 9.91455 15.5627 9.80257C16.019 9.44699 16.5875 9.25309 17.1737 9.25309Z" fill="#6A84E1"/>
<path d="M15.7504 4.18476C15.5701 4.18476 15.3971 4.25373 15.2692 4.3766C15.2057 4.43844 15.1302 4.48751 15.047 4.52101C14.9638 4.5545 14.8746 4.57175 14.7845 4.57175C14.6944 4.57175 14.6051 4.5545 14.522 4.52101C14.4388 4.48751 14.3633 4.43844 14.2998 4.3766C14.2386 4.30754 14.1633 4.25145 14.0786 4.21185C13.9939 4.17225 13.9017 4.15 13.8077 4.14649C13.7137 4.14298 13.6199 4.15829 13.5323 4.19146C13.4447 4.22462 13.3652 4.27493 13.2986 4.33923C13.2321 4.40352 13.1801 4.48041 13.1457 4.56507C13.1114 4.64973 13.0956 4.74033 13.0992 4.83119C13.1028 4.92204 13.1259 5.01119 13.1668 5.09304C13.2078 5.17489 13.2658 5.24767 13.3373 5.30682C13.728 5.66505 14.246 5.86476 14.7845 5.86476C15.323 5.86476 15.841 5.66505 16.2317 5.30682C16.3588 5.18321 16.4302 5.016 16.4302 4.84171C16.4302 4.66742 16.3588 4.50021 16.2317 4.3766C16.1038 4.25373 15.9308 4.18476 15.7504 4.18476Z" fill="#6A84E1"/>
<path d="M19.5629 5.826C20.1015 5.826 20.6195 5.62629 21.0101 5.26806C21.1373 5.14445 21.2086 4.97724 21.2086 4.80295C21.2086 4.62866 21.1373 4.46145 21.0101 4.33784C20.8822 4.21497 20.7092 4.146 20.5289 4.146C20.3485 4.146 20.1755 4.21497 20.0476 4.33784C19.9841 4.39968 19.9086 4.44875 19.8255 4.48225C19.7423 4.51574 19.653 4.53299 19.5629 4.53299C19.4728 4.53299 19.3836 4.51574 19.3004 4.48225C19.2172 4.44875 19.1417 4.39968 19.0783 4.33784C18.9477 4.22976 18.7797 4.17328 18.6079 4.1797C18.4361 4.18611 18.2731 4.25494 18.1515 4.37243C18.03 4.48993 17.9587 4.64743 17.9521 4.81347C17.9455 4.97951 18.0039 5.14185 18.1157 5.26806C18.5064 5.62629 19.0244 5.826 19.5629 5.826Z" fill="#6A84E1"/>
</svg>
