<svg width="22" height="24" viewBox="0 0 22 24" fill="none" xmlns="http://www.w3.org/2000/svg">
<path d="M10.8 0C4.86 0 0 4.83582 0 10.7463V13.4328C0 15.9403 1.98 17.9104 4.5 17.9104C5.04 17.9104 5.4 17.5522 5.4 17.0149V9.85075C5.4 9.31343 5.04 8.95522 4.5 8.95522C3.51 8.95522 2.61 9.31343 1.89 9.85075C2.34 5.37313 6.21 1.79104 10.8 1.79104C15.39 1.79104 19.26 5.28358 19.71 9.85075C18.99 9.31343 18.09 8.95522 17.1 8.95522C16.56 8.95522 16.2 9.31343 16.2 9.85075V17.0149C16.2 17.5522 16.56 17.9104 17.1 17.9104C17.64 17.9104 18.27 17.8209 18.72 17.5522C17.73 19.3433 16.2 20.7761 14.31 21.5821C14.13 20.5075 13.23 19.6119 12.06 19.6119C10.89 19.6119 9.9 20.597 9.9 21.7612C9.9 22.3881 10.17 23.0149 10.71 23.4627C11.16 23.8209 11.61 24 12.15 24C12.24 24 12.42 24 12.51 24C17.64 23.2836 21.6 18.7164 21.6 13.4328V10.7463C21.6 4.83582 16.74 0 10.8 0Z" fill="url(#paint0_linear_101_263)"/>
<defs>
<linearGradient id="paint0_linear_101_263" x1="-0.45" y1="-0.45" x2="20.7" y2="23.4" gradientUnits="userSpaceOnUse">
<stop stop-color="white"/>
<stop offset="1" stop-color="white"/>
</linearGradient>
</defs>
</svg>
