<svg width="23" height="24" viewBox="0 0 23 24" fill="none" xmlns="http://www.w3.org/2000/svg">
<path d="M16.4375 1.14213C16.589 0.687647 16.3434 0.196351 15.889 0.0447886C15.4344 -0.106774 14.9432 0.138787 14.7916 0.593267L13.9241 3.19448C13.7726 3.64896 14.0182 4.14025 14.4726 4.29181C14.9272 4.44337 15.4184 4.19781 15.57 3.74333L16.4375 1.14213ZM21.7216 1.12178C22.0603 1.46054 22.0603 2.0098 21.7216 2.34856L18.83 5.24009C18.4913 5.57885 17.9421 5.57885 17.6033 5.24009C17.2646 4.90133 17.2646 4.35208 17.6033 4.01332L20.4949 1.12178C20.8336 0.783021 21.3828 0.783021 21.7216 1.12178ZM11.4165 2.88122C10.1258 1.49858 7.84892 1.84501 7.02793 3.54893L0.206435 17.7066C-0.187427 18.524 -0.00650966 19.5024 0.65364 20.125L2.3177 21.6943C2.9276 22.2694 3.82297 22.4226 4.58944 22.083L6.22889 21.3567C6.9715 22.9195 8.5645 24 10.4099 24C12.9651 24 15.0363 21.9286 15.0363 19.3735C15.0363 18.7486 14.9125 18.1527 14.688 17.6089L18.6435 15.8564C20.3343 15.1074 20.7819 12.9147 19.5201 11.5628L11.4165 2.88122ZM13.1005 18.3122C13.2302 18.6408 13.3014 18.9989 13.3014 19.3735C13.3014 20.9705 12.0069 22.2651 10.4099 22.2651C9.27247 22.2651 8.28853 21.6084 7.81635 20.6535L13.1005 18.3122ZM18.5058 8.09571C18.5058 7.61661 18.8942 7.22824 19.3733 7.22824H21.6865C22.1656 7.22824 22.554 7.61661 22.554 8.09571C22.554 8.57479 22.1656 8.96317 21.6865 8.96317H19.3733C18.8942 8.96317 18.5058 8.57479 18.5058 8.09571Z" fill="url(#paint0_linear_101_256)"/>
<defs>
<linearGradient id="paint0_linear_101_256" x1="4.5" y1="0.5" x2="19" y2="22" gradientUnits="userSpaceOnUse">
<stop stop-color="white"/>
<stop offset="1" stop-color="white"/>
</linearGradient>
</defs>
</svg>
