<svg width="24" height="20" viewBox="0 0 24 20" fill="none" xmlns="http://www.w3.org/2000/svg">
<path d="M12.828 9.672C12.6075 9.87101 12.321 9.98117 12.024 9.98117C11.727 9.98117 11.4405 9.87101 11.22 9.672L1.04399 0.42C1.4433 0.14647 1.91598 6.42478e-05 2.39999 0H21.6C22.084 6.42478e-05 22.5567 0.14647 22.956 0.42L12.828 9.672Z" fill="url(#paint0_linear_101_265)"/>
<path d="M24 2.71201V15.6C24 16.5548 23.6207 17.4705 22.9456 18.1456C22.2705 18.8207 21.3548 19.2 20.4 19.2H3.6C2.64522 19.2 1.72955 18.8207 1.05442 18.1456C0.379285 17.4705 0 16.5548 0 15.6V2.71201L10.416 12.216C10.8553 12.5975 11.4182 12.8065 12 12.804C12.5891 12.8028 13.1571 12.585 13.596 12.192L24 2.71201Z" fill="url(#paint1_linear_101_265)"/>
<defs>
<linearGradient id="paint0_linear_101_265" x1="2.5" y1="7.98443e-07" x2="22" y2="19" gradientUnits="userSpaceOnUse">
<stop stop-color="white"/>
<stop offset="1" stop-color="white"/>
</linearGradient>
<linearGradient id="paint1_linear_101_265" x1="2.5" y1="7.98443e-07" x2="22" y2="19" gradientUnits="userSpaceOnUse">
<stop stop-color="white"/>
<stop offset="1" stop-color="white"/>
</linearGradient>
</defs>
</svg>
