<svg width="24" height="24" viewBox="0 0 24 24" fill="none" xmlns="http://www.w3.org/2000/svg">
<path d="M11.5155 14.7604C9.45326 13.0682 8.07627 10.9801 7.35234 9.79197L6.81234 8.77607C7.00115 8.5739 8.441 7.03531 9.06497 6.20051C9.8491 5.15224 8.71223 4.20549 8.71223 4.20549C8.71223 4.20549 5.51331 1.01281 4.78427 0.379506C4.05524 -0.254685 3.21603 0.0975448 3.21603 0.0975448C1.68376 1.08552 0.0952977 1.94448 3.21674e-06 6.07549C-0.00355089 9.94315 2.93858 13.9323 6.12017 17.0206C9.30688 20.5083 13.6822 24.004 17.9123 24C22.0515 23.9058 22.912 22.3209 23.902 20.7918C23.902 20.7918 24.2552 19.955 23.6204 19.2268C22.9851 18.4989 19.7853 15.306 19.7853 15.306C19.7853 15.306 18.8372 14.1712 17.7865 14.9544C17.0035 15.5385 15.5974 16.8377 15.2587 17.1527C15.2593 17.1538 12.9072 15.9025 11.5155 14.7604Z" fill="white"/>
</svg>
